<?xml version="1.0" encoding="utf-8"?>
<!-- Generator: Adobe Illustrator 27.5.0, SVG Export Plug-In . SVG Version: 6.00 Build 0)  -->
<svg version="1.1" id="Layer_1" xmlns="http://www.w3.org/2000/svg" xmlns:xlink="http://www.w3.org/1999/xlink" x="0px" y="0px"
	 viewBox="0 0 182.9 163.8" style="enable-background:new 0 0 182.9 163.8;" xml:space="preserve">
<style type="text/css">
	.st0{fill:#FFF1E4;}
</style>
<path class="st0" d="M178.7,73.7l-17.8-15c-0.6-0.9-1.5-1.6-2.4-2L96,4c-1.3-1.1-3-1.6-4.6-1.5c-1.6-0.1-3.2,0.4-4.6,1.5L24.4,56.6
	c-1,0.5-1.8,1.2-2.4,2l-17.8,15c-2.7,2.3-3.1,6.4-0.8,9.2c1.3,1.5,3.1,2.3,5,2.3c1.5,0,3-0.5,4.2-1.5l8.2-6.9v64.2
	c0,11.3,9.2,20.5,20.5,20.5h49.8c0.1,0,0.2,0,0.4,0c0.1,0,0.2,0,0.4,0h49.8c11.3,0,20.5-9.2,20.5-20.5V76.7l8.2,6.9
	c1.2,1,2.7,1.5,4.2,1.5c1.9,0,3.7-0.8,5-2.3C181.8,80.1,181.4,76,178.7,73.7z M107.7,148.4H91.8c-0.1,0-0.2,0-0.4,0
	c-0.1,0-0.2,0-0.4,0H75.1V99.1h32.6V148.4z M149.1,140.9c0,4.1-3.4,7.5-7.5,7.5h-20.8v-50c0-6.7-5.5-12.2-12.2-12.2H74.3
	c-6.7,0-12.2,5.5-12.2,12.2v50H41.3c-4.1,0-7.5-3.4-7.5-7.5V65.7l57.6-48.6l57.6,48.6V140.9z"/>
</svg>
