<?xml version="1.0" encoding="utf-8"?>
<!-- Generator: Adobe Illustrator 25.2.3, SVG Export Plug-In . SVG Version: 6.00 Build 0)  -->
<svg version="1.1" id="Layer_1" xmlns="http://www.w3.org/2000/svg" xmlns:xlink="http://www.w3.org/1999/xlink" x="0px" y="0px"
	 viewBox="0 0 323 230" style="enable-background:new 0 0 323 230;" xml:space="preserve">
<style type="text/css">
	.st0{fill:#FFFFFF;}
</style>
<g>
	<g>
		<path class="st0" d="M299.1,97.8H23.9c-9.8,0-17.7,7.9-17.7,17.7v0c0,9.8,7.9,17.7,17.7,17.7h275.2c9.8,0,17.7-7.9,17.7-17.7v0
			C316.8,105.7,308.9,97.8,299.1,97.8z"/>
	</g>
	<g>
		<path class="st0" d="M311.4,101.3L218.7,8.6c-6.9-6.9-18.2-6.9-25.1,0l0,0c-6.9,6.9-6.9,18.2,0,25.1l92.8,92.8
			c6.9,6.9,18.2,6.9,25.1,0v0C318.4,119.5,318.4,108.3,311.4,101.3z"/>
	</g>
	<g>
		<path class="st0" d="M286.3,103.6l-92.8,92.8c-6.9,6.9-6.9,18.2,0,25.1l0,0c6.9,6.9,18.2,6.9,25.1,0l92.8-92.8
			c6.9-6.9,6.9-18.2,0-25.1v0C304.5,96.6,293.3,96.6,286.3,103.6z"/>
	</g>
</g>
</svg>
